<?xml version="1.0" encoding="UTF-8" standalone="no"?>
<!-- Created with Inkscape (http://www.inkscape.org/) -->

<svg
   width="46.557983mm"
   height="45.886024mm"
   viewBox="0 0 46.557983 45.886024"
   version="1.1"
   id="svg1"
   xmlns:inkscape="http://www.inkscape.org/namespaces/inkscape"
   xmlns:sodipodi="http://sodipodi.sourceforge.net/DTD/sodipodi-0.dtd"
   xmlns="http://www.w3.org/2000/svg"
   xmlns:svg="http://www.w3.org/2000/svg">
  <sodipodi:namedview
     id="namedview1"
     pagecolor="#ffffff"
     bordercolor="#000000"
     borderopacity="0.25"
     inkscape:showpageshadow="2"
     inkscape:pageopacity="0.0"
     inkscape:pagecheckerboard="0"
     inkscape:deskcolor="#d1d1d1"
     inkscape:document-units="mm" />
  <defs
     id="defs1" />
  <g
     inkscape:label="Layer 1"
     inkscape:groupmode="layer"
     id="layer1"
     transform="translate(-31.089951,-78.974638)">
    <text
       xml:space="preserve"
       style="font-size:47.0358px;fill:#f60404;fill-opacity:1;stroke-width:3.91965"
       x="21.739534"
       y="119.32539"
       id="text1"
       transform="scale(1.0075391,0.99251727)"><tspan
         sodipodi:role="line"
         id="tspan1"
         style="fill:#f60404;fill-opacity:1;stroke-width:3.91965"
         x="21.739534"
         y="119.32539">🍉</tspan></text>
    <path
       style="fill:#f60404;fill-opacity:1;stroke-width:0.636349"
       d="m 202.09475,446.01282 c -19.3728,-2.82552 -36.96649,-13.93712 -47.86432,-30.22956 -4.2836,-6.40404 -7.07164,-12.6138 -9.25997,-20.62455 -1.28195,-4.69281 -1.47234,-6.84423 -1.46293,-16.53104 0.0121,-12.4111 0.82419,-16.7252 5.02229,-26.67927 3.92362,-9.30328 8.44496,-15.23565 20.97586,-27.52207 l 11.4716,-11.24777 29.18633,28.74737 c 16.05249,15.81106 37.97321,37.38497 48.71271,47.94203 l 19.52638,19.19466 -9.86341,9.96233 c -5.42488,5.47928 -12.08586,11.64978 -14.80218,13.71222 -14.16593,10.75585 -33.98563,15.85088 -51.64236,13.27565 z m 6.30956,-28.6404 c 4.7957,-4.67495 0.0673,-12.95425 -6.63306,-11.61419 -4.38077,0.87616 -6.80059,5.83478 -4.85165,9.94187 2.15658,4.54465 7.70882,5.35312 11.48471,1.67232 z m 34.26921,-7.60368 c 4.41173,-3.47027 2.44611,-11.37253 -3.08702,-12.41055 -7.30799,-1.37099 -11.59282,7.91356 -5.81284,12.59552 1.95635,1.58471 6.77747,1.4845 8.89986,-0.18497 z M 180.7161,393.58551 c 2.6451,-1.36783 3.82512,-3.39083 3.82512,-6.55767 0,-2.21414 -0.37377,-3.1447 -1.8601,-4.63102 -1.57468,-1.57468 -2.36334,-1.8601 -5.13974,-1.8601 -2.77641,0 -3.56507,0.28542 -5.13974,1.8601 -1.49757,1.49756 -1.8601,2.41101 -1.8601,4.6868 0,5.73976 5.21003,9.06914 10.17456,6.50189 z m 33.28936,-8.63695 c 6.49949,-1.80485 6.39707,-11.54642 -0.1399,-13.30665 -2.00318,-0.5394 -3.0239,-0.48942 -4.75214,0.23268 -5.72423,2.39174 -5.83851,10.36474 -0.18382,12.8244 2.47533,1.07672 2.15409,1.06093 5.07586,0.24957 z m -25.3907,-25.66231 c 2.83553,-1.18477 4.199,-3.291 4.199,-6.48649 0,-4.88414 -4.28591,-7.909 -9.26017,-6.53554 -5.77737,1.59521 -6.27564,10.56212 -0.72115,12.97793 2.5799,1.12208 3.19119,1.12674 5.78232,0.0441 z"
       id="path1"
       transform="scale(0.26458333)" />
  </g>
</svg>
